# xmcd
#
# Track frame offsets: 
#        150
#        15286
#        30646
#        53345
#        68260
#        82957
#        103234
#        118865
#        132714
#        147669
#        163395
#        181120
#        195532
#        213719
#        225552
#        240735
#        255811
#        273023
#        288873
#        307425
#        326864
#
# Disc length: 4563 seconds
#
# Revision: 1
# Processed by: cddbd v1.5.1PL2 Copyright (c) Steve Scherf et al.
# Submitted via: ExactAudioCopy v0.95b4
#
DISCID=2c11d115
DTITLE=Rosanne Cash - Blue Moons And Broken Hearts: The Anthology 1979
DTITLE=1996
DYEAR=2005
DGENRE=Country
TTITLE0=Right Or Wrong
TTITLE1=No Memories Hangin' 'Round (with Bobby Bare)
TTITLE2=Anybody's Darlin' (Anything But Mine)
TTITLE3=Seven Year Ache
TTITLE4=My Baby Thinks He's A Train
TTITLE5=Blue Moon With Heartache
TTITLE6=Ain't No Money
TTITLE7=I Wonder
TTITLE8=I Don't Know Why You Don't Want Me
TTITLE9=Never Be You
TTITLE10=The Way We Make A Broken Heart
TTITLE11=Tennessee Flat Top Box
TTITLE12=Runaway Train
TTITLE13=I Don't Want To Spoil The Party
TTITLE14=If You Change Your Mind
TTITLE15=It's Such A Small World (with Rodney Crowell)
TTITLE16=Dance With The Tiger
TTITLE17=What We Really Want
TTITLE18=Sleeping In Paris
TTITLE19=River
TTITLE20=I Count The Tears
EXTD=
EXTT0=
EXTT1=
EXTT2=
EXTT3=
EXTT4=
EXTT5=
EXTT6=
EXTT7=
EXTT8=
EXTT9=
EXTT10=
EXTT11=
EXTT12=
EXTT13=
EXTT14=
EXTT15=
EXTT16=
EXTT17=
EXTT18=
EXTT19=
EXTT20=
PLAYORDER=
